<svg width="33" height="25" viewBox="0 0 33 25" fill="none" xmlns="http://www.w3.org/2000/svg">
<path d="M15.3049 1.75477L13.1807 -0.0078125C5.18359 4.52455 1.43496 9.68641 0.435325 15.4778C-0.314401 20.2619 1.55991 24.0389 6.30818 24.0389C9.68195 24.0389 12.9308 21.7727 13.6805 17.9957C14.3053 13.5893 11.8062 10.9454 8.68231 10.3159C9.93186 6.03534 15.1799 1.75477 15.3049 1.75477ZM26.051 10.0641C27.4255 5.90945 32.4236 1.75477 32.5486 1.75477L30.4244 -0.0078125C22.4273 4.52455 18.6787 9.68641 17.679 15.4778C16.9293 20.2619 18.8036 24.0389 23.5519 24.0389C26.9256 24.0389 30.1745 21.7727 30.7992 17.9957C31.549 13.5893 29.1748 10.6936 26.051 10.0641Z" fill="url(#paint0_radial_117_59)"/>
<defs>
<radialGradient id="paint0_radial_117_59" cx="0" cy="0" r="1" gradientUnits="userSpaceOnUse" gradientTransform="translate(9.49631 4.11448) rotate(60.9542) scale(22.7908 27.3804)">
<stop stop-color="#FDFFA7"/>
<stop offset="1" stop-color="#FFD02B"/>
</radialGradient>
</defs>
</svg>
