<svg width="40" height="30" viewBox="0 0 40 30" fill="none" xmlns="http://www.w3.org/2000/svg">
<path d="M18.6093 2.18194L16.0421 0.0517578C6.37716 5.52939 1.84672 11.7678 0.638602 18.767C-0.267485 24.5489 1.99773 29.1136 7.73629 29.1136C11.8137 29.1136 15.7401 26.3748 16.6462 21.8101C17.4012 16.4846 14.3809 13.2894 10.6056 12.5286C12.1157 7.35526 18.4583 2.18194 18.6093 2.18194ZM31.5966 12.2243C33.2578 7.20311 39.2984 2.18194 39.4494 2.18194L36.8821 0.0517578C27.2172 5.52939 22.6867 11.7678 21.4786 18.767C20.5725 24.5489 22.8378 29.1136 28.5763 29.1136C32.6537 29.1136 36.5801 26.3748 37.3352 21.8101C38.2413 16.4846 35.372 12.985 31.5966 12.2243Z" fill="url(#paint0_radial_117_27)"/>
<defs>
<radialGradient id="paint0_radial_117_27" cx="0" cy="0" r="1" gradientUnits="userSpaceOnUse" gradientTransform="translate(11.5893 5.03379) rotate(60.9542) scale(27.544 33.0908)">
<stop stop-color="#FDFFA7"/>
<stop offset="1" stop-color="#FFD02B"/>
</radialGradient>
</defs>
</svg>
