<svg width="35" height="35" viewBox="0 0 35 35" fill="none" xmlns="http://www.w3.org/2000/svg">
<path d="M20.0762 13.7831V17.859H23.7304C24.0115 17.859 24.1521 18.1401 24.1521 18.4212L23.5899 21.0916C23.5899 21.2321 23.3088 21.3726 23.1682 21.3726H20.0762V31.6326H15.8598V21.5132H13.4705C13.1894 21.5132 13.0488 21.3726 13.0488 21.0916V18.4212C13.0488 18.1401 13.1894 17.9995 13.4705 17.9995H15.8598V13.3614C15.8598 10.9721 17.6869 9.14502 20.0762 9.14502H23.871C24.1521 9.14502 24.2926 9.28557 24.2926 9.56666V12.9398C24.2926 13.2209 24.1521 13.3614 23.871 13.3614H20.4978C20.2167 13.3614 20.0762 13.502 20.0762 13.7831Z" stroke="white" stroke-width="1.58116" stroke-miterlimit="10" stroke-linecap="round"/>
<path d="M21.4821 31.6334H13.0493C6.02189 31.6334 3.21094 28.8225 3.21094 21.7951V13.3622C3.21094 6.33487 6.02189 3.52393 13.0493 3.52393H21.4821C28.5095 3.52393 31.3204 6.33487 31.3204 13.3622V21.7951C31.3204 28.8225 28.5095 31.6334 21.4821 31.6334Z" stroke="white" stroke-width="1.58116" stroke-linecap="round" stroke-linejoin="round"/>
</svg>
