<svg width="35" height="34" viewBox="0 0 35 34" fill="none" xmlns="http://www.w3.org/2000/svg">
<path d="M20.0782 13.3368V17.4127H23.7324C24.0135 17.4127 24.154 17.6938 24.154 17.9749L23.5918 20.6453C23.5918 20.7858 23.3107 20.9264 23.1702 20.9264H20.0782V31.1863H15.8617V21.0669H13.4724C13.1913 21.0669 13.0508 20.9264 13.0508 20.6453V17.9749C13.0508 17.6938 13.1913 17.5532 13.4724 17.5532H15.8617V12.9152C15.8617 10.5258 17.6888 8.69873 20.0782 8.69873H23.8729C24.154 8.69873 24.2946 8.83928 24.2946 9.12037V12.4935C24.2946 12.7746 24.154 12.9152 23.8729 12.9152H20.4998C20.2187 12.9152 20.0782 13.0557 20.0782 13.3368Z" stroke="white" stroke-width="1.58116" stroke-miterlimit="10" stroke-linecap="round"/>
<path d="M21.4841 31.1876H13.0512C6.02384 31.1876 3.21289 28.3767 3.21289 21.3493V12.9164C3.21289 5.88907 6.02384 3.07812 13.0512 3.07812H21.4841C28.5114 3.07812 31.3224 5.88907 31.3224 12.9164V21.3493C31.3224 28.3767 28.5114 31.1876 21.4841 31.1876Z" stroke="white" stroke-width="1.58116" stroke-linecap="round" stroke-linejoin="round"/>
</svg>
