<svg width="14" height="14" viewBox="0 0 14 14" fill="none" xmlns="http://www.w3.org/2000/svg">
<g clip-path="url(#clip0_187_621)">
<path d="M2.01953 7.45181C2.01953 5.41663 2.01953 4.39877 2.65205 3.7668C3.28403 3.13428 4.30189 3.13428 6.33706 3.13428H8.49583C10.531 3.13428 11.5489 3.13428 12.1808 3.7668C12.8134 4.39877 12.8134 5.41663 12.8134 7.45181V8.53119C12.8134 10.5664 12.8134 11.5842 12.1808 12.2162C11.5489 12.8487 10.531 12.8487 8.49583 12.8487H6.33706C4.30189 12.8487 3.28403 12.8487 2.65205 12.2162C2.01953 11.5842 2.01953 10.5664 2.01953 8.53119V7.45181Z" stroke="black" stroke-width="0.809537"/>
<path d="M4.71767 3.13473V2.3252M10.1146 3.13473V2.3252M2.28906 5.83319H12.5432" stroke="black" stroke-width="0.809537" stroke-linecap="round"/>
<path d="M10.654 10.1506C10.654 10.2937 10.5972 10.431 10.496 10.5322C10.3947 10.6334 10.2575 10.6903 10.1143 10.6903C9.9712 10.6903 9.83393 10.6334 9.73272 10.5322C9.63151 10.431 9.57465 10.2937 9.57465 10.1506C9.57465 10.0075 9.63151 9.8702 9.73272 9.76898C9.83393 9.66777 9.9712 9.61091 10.1143 9.61091C10.2575 9.61091 10.3947 9.66777 10.496 9.76898C10.5972 9.8702 10.654 10.0075 10.654 10.1506ZM10.654 7.99184C10.654 8.13497 10.5972 8.27225 10.496 8.37346C10.3947 8.47467 10.2575 8.53153 10.1143 8.53153C9.9712 8.53153 9.83393 8.47467 9.73272 8.37346C9.63151 8.27225 9.57465 8.13497 9.57465 7.99184C9.57465 7.8487 9.63151 7.71143 9.73272 7.61022C9.83393 7.50901 9.9712 7.45215 10.1143 7.45215C10.2575 7.45215 10.3947 7.50901 10.496 7.61022C10.5972 7.71143 10.654 7.8487 10.654 7.99184ZM7.95557 10.1506C7.95557 10.2937 7.89871 10.431 7.7975 10.5322C7.69629 10.6334 7.55902 10.6903 7.41588 10.6903C7.27275 10.6903 7.13547 10.6334 7.03426 10.5322C6.93305 10.431 6.87619 10.2937 6.87619 10.1506C6.87619 10.0075 6.93305 9.8702 7.03426 9.76898C7.13547 9.66777 7.27275 9.61091 7.41588 9.61091C7.55902 9.61091 7.69629 9.66777 7.7975 9.76898C7.89871 9.8702 7.95557 10.0075 7.95557 10.1506ZM7.95557 7.99184C7.95557 8.13497 7.89871 8.27225 7.7975 8.37346C7.69629 8.47467 7.55902 8.53153 7.41588 8.53153C7.27275 8.53153 7.13547 8.47467 7.03426 8.37346C6.93305 8.27225 6.87619 8.13497 6.87619 7.99184C6.87619 7.8487 6.93305 7.71143 7.03426 7.61022C7.13547 7.50901 7.27275 7.45215 7.41588 7.45215C7.55902 7.45215 7.69629 7.50901 7.7975 7.61022C7.89871 7.71143 7.95557 7.8487 7.95557 7.99184ZM5.25712 10.1506C5.25712 10.2937 5.20026 10.431 5.09904 10.5322C4.99783 10.6334 4.86056 10.6903 4.71743 10.6903C4.57429 10.6903 4.43702 10.6334 4.33581 10.5322C4.23459 10.431 4.17773 10.2937 4.17773 10.1506C4.17773 10.0075 4.23459 9.8702 4.33581 9.76898C4.43702 9.66777 4.57429 9.61091 4.71743 9.61091C4.86056 9.61091 4.99783 9.66777 5.09904 9.76898C5.20026 9.8702 5.25712 10.0075 5.25712 10.1506ZM5.25712 7.99184C5.25712 8.13497 5.20026 8.27225 5.09904 8.37346C4.99783 8.47467 4.86056 8.53153 4.71743 8.53153C4.57429 8.53153 4.43702 8.47467 4.33581 8.37346C4.23459 8.27225 4.17773 8.13497 4.17773 7.99184C4.17773 7.8487 4.23459 7.71143 4.33581 7.61022C4.43702 7.50901 4.57429 7.45215 4.71743 7.45215C4.86056 7.45215 4.99783 7.50901 5.09904 7.61022C5.20026 7.71143 5.25712 7.8487 5.25712 7.99184Z" fill="black"/>
</g>
<defs>
<clipPath id="clip0_187_621">
<rect width="12.9526" height="12.9526" fill="white" transform="translate(0.941406 0.975098)"/>
</clipPath>
</defs>
</svg>
