<svg width="22" height="22" viewBox="0 0 22 22" fill="none" xmlns="http://www.w3.org/2000/svg">
<rect x="0.5" y="0.5" width="21" height="20.3333" rx="0.833333" stroke="white"/>
<line x1="6.49805" y1="0.66687" x2="6.49805" y2="20.6669" stroke="white"/>
<path d="M11.6458 10.3132C11.4505 10.5085 11.4505 10.825 11.6458 11.0203L14.8278 14.2023C15.023 14.3975 15.3396 14.3975 15.5349 14.2023C15.7301 14.007 15.7301 13.6904 15.5349 13.4952L12.7065 10.6667L15.5349 7.83832C15.7301 7.64306 15.7301 7.32648 15.5349 7.13121C15.3396 6.93595 15.023 6.93595 14.8278 7.13121L11.6458 10.3132ZM12.666 10.1667L11.9993 10.1667L11.9993 11.1667L12.666 11.1667L12.666 10.1667Z" fill="white"/>
</svg>
