<svg width="14" height="17" viewBox="0 0 14 17" fill="none" xmlns="http://www.w3.org/2000/svg">
<path d="M5.92308 7.72381C5.48267 7.72381 5.06029 7.54886 4.74887 7.23743C4.43745 6.92601 4.2625 6.50364 4.2625 6.06322C4.2625 5.62281 4.43745 5.20043 4.74887 4.88901C5.06029 4.57759 5.48267 4.40263 5.92308 4.40263C6.3635 4.40263 6.78588 4.57759 7.0973 4.88901C7.40872 5.20043 7.58367 5.62281 7.58367 6.06322C7.58367 6.28129 7.54072 6.49723 7.45727 6.6987C7.37382 6.90017 7.2515 7.08323 7.0973 7.23743C6.9431 7.39163 6.76004 7.51395 6.55856 7.5974C6.35709 7.68086 6.14116 7.72381 5.92308 7.72381ZM5.92308 1.41357C4.68992 1.41357 3.50727 1.90345 2.63529 2.77542C1.76331 3.6474 1.27344 4.83006 1.27344 6.06322C1.27344 9.55046 5.92308 14.6983 5.92308 14.6983C5.92308 14.6983 10.5727 9.55046 10.5727 6.06322C10.5727 4.83006 10.0829 3.6474 9.21088 2.77542C8.3389 1.90345 7.15625 1.41357 5.92308 1.41357Z" fill="#0B1D27"/>
</svg>
