<svg width="16" height="12" viewBox="0 0 16 12" fill="none" xmlns="http://www.w3.org/2000/svg">
<path d="M8 0.666992C4.36364 0.666992 1.25818 2.92881 0 6.12154C1.25818 9.31426 4.36364 11.5761 8 11.5761C11.6364 11.5761 14.7418 9.31426 16 6.12154C14.7418 2.92881 11.6364 0.666992 8 0.666992ZM8 9.7579C5.99273 9.7579 4.36364 8.12881 4.36364 6.12154C4.36364 4.11426 5.99273 2.48517 8 2.48517C10.0073 2.48517 11.6364 4.11426 11.6364 6.12154C11.6364 8.12881 10.0073 9.7579 8 9.7579ZM8 3.93972C6.79273 3.93972 5.81818 4.91426 5.81818 6.12154C5.81818 7.32881 6.79273 8.30336 8 8.30336C9.20727 8.30336 10.1818 7.32881 10.1818 6.12154C10.1818 4.91426 9.20727 3.93972 8 3.93972Z" fill="#737373"/>
</svg>
