<svg width="14" height="17" viewBox="0 0 14 17" fill="none" xmlns="http://www.w3.org/2000/svg">
<path d="M5.92308 7.7243C5.48267 7.7243 5.06029 7.54934 4.74887 7.23792C4.43745 6.9265 4.2625 6.50413 4.2625 6.06371C4.2625 5.62329 4.43745 5.20092 4.74887 4.8895C5.06029 4.57808 5.48267 4.40312 5.92308 4.40312C6.3635 4.40312 6.78588 4.57808 7.0973 4.8895C7.40872 5.20092 7.58367 5.62329 7.58367 6.06371C7.58367 6.28178 7.54072 6.49772 7.45727 6.69919C7.37382 6.90066 7.2515 7.08372 7.0973 7.23792C6.9431 7.39212 6.76004 7.51444 6.55856 7.59789C6.35709 7.68135 6.14116 7.7243 5.92308 7.7243ZM5.92308 1.41406C4.68992 1.41406 3.50727 1.90393 2.63529 2.77591C1.76331 3.64789 1.27344 4.83055 1.27344 6.06371C1.27344 9.55095 5.92308 14.6988 5.92308 14.6988C5.92308 14.6988 10.5727 9.55095 10.5727 6.06371C10.5727 4.83055 10.0829 3.64789 9.21088 2.77591C8.3389 1.90393 7.15625 1.41406 5.92308 1.41406Z" fill="white"/>
</svg>
