<svg width="14" height="17" viewBox="0 0 14 17" fill="none" xmlns="http://www.w3.org/2000/svg">
<path d="M5.93871 7.72283C5.49829 7.72283 5.07592 7.54788 4.7645 7.23646C4.45308 6.92504 4.27812 6.50266 4.27812 6.06224C4.27812 5.62183 4.45308 5.19945 4.7645 4.88803C5.07592 4.57661 5.49829 4.40166 5.93871 4.40166C6.37913 4.40166 6.8015 4.57661 7.11292 4.88803C7.42434 5.19945 7.5993 5.62183 7.5993 6.06224C7.5993 6.28032 7.55635 6.49625 7.47289 6.69772C7.38944 6.8992 7.26712 7.08226 7.11292 7.23646C6.95872 7.39066 6.77566 7.51298 6.57419 7.59643C6.37272 7.67988 6.15678 7.72283 5.93871 7.72283ZM5.93871 1.4126C4.70555 1.4126 3.52289 1.90247 2.65091 2.77445C1.77893 3.64643 1.28906 4.82908 1.28906 6.06224C1.28906 9.54948 5.93871 14.6973 5.93871 14.6973C5.93871 14.6973 10.5884 9.54948 10.5884 6.06224C10.5884 4.82908 10.0985 3.64643 9.22651 2.77445C8.35453 1.90247 7.17187 1.4126 5.93871 1.4126Z" fill="white"/>
</svg>
