<svg width="14" height="13" viewBox="0 0 14 13" fill="none" xmlns="http://www.w3.org/2000/svg">
<path d="M12.2739 0.147252L12.2739 0.147238C12.3884 0.103697 12.513 0.0941765 12.6328 0.119822C12.7526 0.145464 12.8624 0.205169 12.949 0.291752C13.0356 0.378737 13.0952 0.488964 13.1205 0.609101C13.1459 0.729238 13.1358 0.854139 13.0917 0.968698L13.0916 0.968838L8.92815 11.9673C8.92812 11.9674 8.92809 11.9674 8.92806 11.9675C8.87928 12.089 8.79511 12.193 8.68648 12.266C8.57778 12.3391 8.44961 12.3777 8.31863 12.377H8.31849H8.29153C8.03347 12.3652 7.81921 12.1927 7.73429 11.9467L7.73412 11.9462C7.73237 11.9415 7.73088 11.937 7.72937 11.932L7.72952 11.9319L7.72843 11.9294L6.11593 8.15231C6.09518 8.08316 6.09281 8.00979 6.10906 7.93943C6.12541 7.86864 6.16005 7.80338 6.20951 7.75016L11.8566 1.69274C11.8768 1.67245 11.8929 1.6484 11.9038 1.62195C11.9148 1.59536 11.9205 1.56686 11.9205 1.53808C11.9205 1.5093 11.9148 1.4808 11.9038 1.45422C11.8928 1.42763 11.8767 1.40347 11.8563 1.38312C11.836 1.36276 11.8118 1.34662 11.7852 1.33561C11.7586 1.32459 11.7301 1.31892 11.7013 1.31892C11.6726 1.31892 11.6441 1.32459 11.6175 1.33561C11.591 1.34656 11.567 1.3626 11.5467 1.3828L5.48651 7.02963C5.43329 7.07909 5.36802 7.11373 5.29724 7.13008C5.22688 7.14633 5.1535 7.14396 5.08435 7.12321L1.30948 5.51126L1.30953 5.51115L1.30725 5.51043L1.29634 5.50698C1.29628 5.50696 1.29622 5.50694 1.29616 5.50692C1.17217 5.46539 1.06401 5.38661 0.986437 5.28134C0.908829 5.17601 0.865627 5.04929 0.862731 4.9185C0.859835 4.7877 0.897385 4.65919 0.970255 4.55054C1.0418 4.44386 1.14395 4.36142 1.26321 4.314V4.31475L1.27195 4.31145L12.2739 0.147252Z" fill="black" stroke="black" stroke-width="0.0493689"/>
</svg>
