<svg width="14" height="14" viewBox="0 0 14 14" fill="none" xmlns="http://www.w3.org/2000/svg">
<g clip-path="url(#clip0_257_295)">
<path d="M2.02148 7.4523C2.02148 5.41712 2.02148 4.39926 2.654 3.76728C3.28598 3.13477 4.30384 3.13477 6.33901 3.13477H8.49778C10.533 3.13477 11.5508 3.13477 12.1828 3.76728C12.8153 4.39926 12.8153 5.41712 12.8153 7.4523V8.53168C12.8153 10.5669 12.8153 11.5847 12.1828 12.2167C11.5508 12.8492 10.533 12.8492 8.49778 12.8492H6.33901C4.30384 12.8492 3.28598 12.8492 2.654 12.2167C2.02148 11.5847 2.02148 10.5669 2.02148 8.53168V7.4523Z" stroke="white" stroke-width="0.809537"/>
<path d="M4.71963 3.13522V2.32568M10.1165 3.13522V2.32568M2.29102 5.83368H12.5451" stroke="white" stroke-width="0.809537" stroke-linecap="round"/>
<path d="M10.656 10.1511C10.656 10.2942 10.5991 10.4315 10.4979 10.5327C10.3967 10.6339 10.2594 10.6908 10.1163 10.6908C9.97316 10.6908 9.83588 10.6339 9.73467 10.5327C9.63346 10.4315 9.5766 10.2942 9.5766 10.1511C9.5766 10.008 9.63346 9.87068 9.73467 9.76947C9.83588 9.66826 9.97316 9.6114 10.1163 9.6114C10.2594 9.6114 10.3967 9.66826 10.4979 9.76947C10.5991 9.87068 10.656 10.008 10.656 10.1511ZM10.656 7.99233C10.656 8.13546 10.5991 8.27274 10.4979 8.37395C10.3967 8.47516 10.2594 8.53202 10.1163 8.53202C9.97316 8.53202 9.83588 8.47516 9.73467 8.37395C9.63346 8.27274 9.5766 8.13546 9.5766 7.99233C9.5766 7.84919 9.63346 7.71192 9.73467 7.61071C9.83588 7.5095 9.97316 7.45264 10.1163 7.45264C10.2594 7.45264 10.3967 7.5095 10.4979 7.61071C10.5991 7.71192 10.656 7.84919 10.656 7.99233ZM7.95753 10.1511C7.95753 10.2942 7.90067 10.4315 7.79945 10.5327C7.69824 10.6339 7.56097 10.6908 7.41783 10.6908C7.2747 10.6908 7.13743 10.6339 7.03622 10.5327C6.935 10.4315 6.87814 10.2942 6.87814 10.1511C6.87814 10.008 6.935 9.87068 7.03622 9.76947C7.13743 9.66826 7.2747 9.6114 7.41783 9.6114C7.56097 9.6114 7.69824 9.66826 7.79945 9.76947C7.90067 9.87068 7.95753 10.008 7.95753 10.1511ZM7.95753 7.99233C7.95753 8.13546 7.90067 8.27274 7.79945 8.37395C7.69824 8.47516 7.56097 8.53202 7.41783 8.53202C7.2747 8.53202 7.13743 8.47516 7.03622 8.37395C6.935 8.27274 6.87814 8.13546 6.87814 7.99233C6.87814 7.84919 6.935 7.71192 7.03622 7.61071C7.13743 7.5095 7.2747 7.45264 7.41783 7.45264C7.56097 7.45264 7.69824 7.5095 7.79945 7.61071C7.90067 7.71192 7.95753 7.84919 7.95753 7.99233ZM5.25907 10.1511C5.25907 10.2942 5.20221 10.4315 5.101 10.5327C4.99979 10.6339 4.86251 10.6908 4.71938 10.6908C4.57624 10.6908 4.43897 10.6339 4.33776 10.5327C4.23655 10.4315 4.17969 10.2942 4.17969 10.1511C4.17969 10.008 4.23655 9.87068 4.33776 9.76947C4.43897 9.66826 4.57624 9.6114 4.71938 9.6114C4.86251 9.6114 4.99979 9.66826 5.101 9.76947C5.20221 9.87068 5.25907 10.008 5.25907 10.1511ZM5.25907 7.99233C5.25907 8.13546 5.20221 8.27274 5.101 8.37395C4.99979 8.47516 4.86251 8.53202 4.71938 8.53202C4.57624 8.53202 4.43897 8.47516 4.33776 8.37395C4.23655 8.27274 4.17969 8.13546 4.17969 7.99233C4.17969 7.84919 4.23655 7.71192 4.33776 7.61071C4.43897 7.5095 4.57624 7.45264 4.71938 7.45264C4.86251 7.45264 4.99979 7.5095 5.101 7.61071C5.20221 7.71192 5.25907 7.84919 5.25907 7.99233Z" fill="white"/>
</g>
<defs>
<clipPath id="clip0_257_295">
<rect width="12.9526" height="12.9526" fill="white" transform="translate(0.941406 0.975586)"/>
</clipPath>
</defs>
</svg>
