<svg width="14" height="14" viewBox="0 0 14 14" fill="none" xmlns="http://www.w3.org/2000/svg">
<g clip-path="url(#clip0_257_337)">
<path d="M2.03711 7.45181C2.03711 5.41663 2.03711 4.39877 2.66963 3.7668C3.30161 3.13428 4.31946 3.13428 6.35464 3.13428H8.5134C10.5486 3.13428 11.5664 3.13428 12.1984 3.7668C12.8309 4.39877 12.8309 5.41663 12.8309 7.45181V8.53119C12.8309 10.5664 12.8309 11.5842 12.1984 12.2162C11.5664 12.8487 10.5486 12.8487 8.5134 12.8487H6.35464C4.31946 12.8487 3.30161 12.8487 2.66963 12.2162C2.03711 11.5842 2.03711 10.5664 2.03711 8.53119V7.45181Z" stroke="white" stroke-width="0.809537"/>
<path d="M4.73525 3.13473V2.3252M10.1322 3.13473V2.3252M2.30664 5.83319H12.5608" stroke="white" stroke-width="0.809537" stroke-linecap="round"/>
<path d="M10.6716 10.1506C10.6716 10.2937 10.6147 10.431 10.5135 10.5322C10.4123 10.6334 10.2751 10.6903 10.1319 10.6903C9.98878 10.6903 9.85151 10.6334 9.7503 10.5322C9.64908 10.431 9.59222 10.2937 9.59222 10.1506C9.59222 10.0075 9.64908 9.8702 9.7503 9.76898C9.85151 9.66777 9.98878 9.61091 10.1319 9.61091C10.2751 9.61091 10.4123 9.66777 10.5135 9.76898C10.6147 9.8702 10.6716 10.0075 10.6716 10.1506ZM10.6716 7.99184C10.6716 8.13497 10.6147 8.27225 10.5135 8.37346C10.4123 8.47467 10.2751 8.53153 10.1319 8.53153C9.98878 8.53153 9.85151 8.47467 9.7503 8.37346C9.64908 8.27225 9.59222 8.13497 9.59222 7.99184C9.59222 7.8487 9.64908 7.71143 9.7503 7.61022C9.85151 7.50901 9.98878 7.45215 10.1319 7.45215C10.2751 7.45215 10.4123 7.50901 10.5135 7.61022C10.6147 7.71143 10.6716 7.8487 10.6716 7.99184ZM7.97315 10.1506C7.97315 10.2937 7.91629 10.431 7.81508 10.5322C7.71387 10.6334 7.57659 10.6903 7.43346 10.6903C7.29032 10.6903 7.15305 10.6334 7.05184 10.5322C6.95063 10.431 6.89377 10.2937 6.89377 10.1506C6.89377 10.0075 6.95063 9.8702 7.05184 9.76898C7.15305 9.66777 7.29032 9.61091 7.43346 9.61091C7.57659 9.61091 7.71387 9.66777 7.81508 9.76898C7.91629 9.8702 7.97315 10.0075 7.97315 10.1506ZM7.97315 7.99184C7.97315 8.13497 7.91629 8.27225 7.81508 8.37346C7.71387 8.47467 7.57659 8.53153 7.43346 8.53153C7.29032 8.53153 7.15305 8.47467 7.05184 8.37346C6.95063 8.27225 6.89377 8.13497 6.89377 7.99184C6.89377 7.8487 6.95063 7.71143 7.05184 7.61022C7.15305 7.50901 7.29032 7.45215 7.43346 7.45215C7.57659 7.45215 7.71387 7.50901 7.81508 7.61022C7.91629 7.71143 7.97315 7.8487 7.97315 7.99184ZM5.27469 10.1506C5.27469 10.2937 5.21783 10.431 5.11662 10.5322C5.01541 10.6334 4.87814 10.6903 4.735 10.6903C4.59187 10.6903 4.4546 10.6334 4.35338 10.5322C4.25217 10.431 4.19531 10.2937 4.19531 10.1506C4.19531 10.0075 4.25217 9.8702 4.35338 9.76898C4.4546 9.66777 4.59187 9.61091 4.735 9.61091C4.87814 9.61091 5.01541 9.66777 5.11662 9.76898C5.21783 9.8702 5.27469 10.0075 5.27469 10.1506ZM5.27469 7.99184C5.27469 8.13497 5.21783 8.27225 5.11662 8.37346C5.01541 8.47467 4.87814 8.53153 4.735 8.53153C4.59187 8.53153 4.4546 8.47467 4.35338 8.37346C4.25217 8.27225 4.19531 8.13497 4.19531 7.99184C4.19531 7.8487 4.25217 7.71143 4.35338 7.61022C4.4546 7.50901 4.59187 7.45215 4.735 7.45215C4.87814 7.45215 5.01541 7.50901 5.11662 7.61022C5.21783 7.71143 5.27469 7.8487 5.27469 7.99184Z" fill="white"/>
</g>
<defs>
<clipPath id="clip0_257_337">
<rect width="12.9526" height="12.9526" fill="white" transform="translate(0.957031 0.975098)"/>
</clipPath>
</defs>
</svg>
