<svg width="14" height="14" viewBox="0 0 14 14" fill="none" xmlns="http://www.w3.org/2000/svg">
<g clip-path="url(#clip0_257_379)">
<path d="M2.05078 7.45181C2.05078 5.41663 2.05078 4.39877 2.6833 3.7668C3.31528 3.13428 4.33314 3.13428 6.36831 3.13428H8.52708C10.5623 3.13428 11.5801 3.13428 12.2121 3.7668C12.8446 4.39877 12.8446 5.41663 12.8446 7.45181V8.53119C12.8446 10.5664 12.8446 11.5842 12.2121 12.2162C11.5801 12.8487 10.5623 12.8487 8.52708 12.8487H6.36831C4.33314 12.8487 3.31528 12.8487 2.6833 12.2162C2.05078 11.5842 2.05078 10.5664 2.05078 8.53119V7.45181Z" stroke="white" stroke-width="0.809537"/>
<path d="M4.74892 3.13473V2.3252M10.1458 3.13473V2.3252M2.32031 5.83319H12.5744" stroke="white" stroke-width="0.809537" stroke-linecap="round"/>
<path d="M10.6853 10.1506C10.6853 10.2937 10.6284 10.431 10.5272 10.5322C10.426 10.6334 10.2887 10.6903 10.1456 10.6903C10.0025 10.6903 9.86518 10.6334 9.76397 10.5322C9.66276 10.431 9.6059 10.2937 9.6059 10.1506C9.6059 10.0075 9.66276 9.8702 9.76397 9.76898C9.86518 9.66777 10.0025 9.61091 10.1456 9.61091C10.2887 9.61091 10.426 9.66777 10.5272 9.76898C10.6284 9.8702 10.6853 10.0075 10.6853 10.1506ZM10.6853 7.99184C10.6853 8.13497 10.6284 8.27225 10.5272 8.37346C10.426 8.47467 10.2887 8.53153 10.1456 8.53153C10.0025 8.53153 9.86518 8.47467 9.76397 8.37346C9.66276 8.27225 9.6059 8.13497 9.6059 7.99184C9.6059 7.8487 9.66276 7.71143 9.76397 7.61022C9.86518 7.50901 10.0025 7.45215 10.1456 7.45215C10.2887 7.45215 10.426 7.50901 10.5272 7.61022C10.6284 7.71143 10.6853 7.8487 10.6853 7.99184ZM7.98682 10.1506C7.98682 10.2937 7.92996 10.431 7.82875 10.5322C7.72754 10.6334 7.59027 10.6903 7.44713 10.6903C7.304 10.6903 7.16672 10.6334 7.06551 10.5322C6.9643 10.431 6.90744 10.2937 6.90744 10.1506C6.90744 10.0075 6.9643 9.8702 7.06551 9.76898C7.16672 9.66777 7.304 9.61091 7.44713 9.61091C7.59027 9.61091 7.72754 9.66777 7.82875 9.76898C7.92996 9.8702 7.98682 10.0075 7.98682 10.1506ZM7.98682 7.99184C7.98682 8.13497 7.92996 8.27225 7.82875 8.37346C7.72754 8.47467 7.59027 8.53153 7.44713 8.53153C7.304 8.53153 7.16672 8.47467 7.06551 8.37346C6.9643 8.27225 6.90744 8.13497 6.90744 7.99184C6.90744 7.8487 6.9643 7.71143 7.06551 7.61022C7.16672 7.50901 7.304 7.45215 7.44713 7.45215C7.59027 7.45215 7.72754 7.50901 7.82875 7.61022C7.92996 7.71143 7.98682 7.8487 7.98682 7.99184ZM5.28837 10.1506C5.28837 10.2937 5.23151 10.431 5.13029 10.5322C5.02908 10.6334 4.89181 10.6903 4.74868 10.6903C4.60554 10.6903 4.46827 10.6334 4.36706 10.5322C4.26584 10.431 4.20898 10.2937 4.20898 10.1506C4.20898 10.0075 4.26584 9.8702 4.36706 9.76898C4.46827 9.66777 4.60554 9.61091 4.74868 9.61091C4.89181 9.61091 5.02908 9.66777 5.13029 9.76898C5.23151 9.8702 5.28837 10.0075 5.28837 10.1506ZM5.28837 7.99184C5.28837 8.13497 5.23151 8.27225 5.13029 8.37346C5.02908 8.47467 4.89181 8.53153 4.74868 8.53153C4.60554 8.53153 4.46827 8.47467 4.36706 8.37346C4.26584 8.27225 4.20898 8.13497 4.20898 7.99184C4.20898 7.8487 4.26584 7.71143 4.36706 7.61022C4.46827 7.50901 4.60554 7.45215 4.74868 7.45215C4.89181 7.45215 5.02908 7.50901 5.13029 7.61022C5.23151 7.71143 5.28837 7.8487 5.28837 7.99184Z" fill="white"/>
</g>
<defs>
<clipPath id="clip0_257_379">
<rect width="12.9526" height="12.9526" fill="white" transform="translate(0.972656 0.975586)"/>
</clipPath>
</defs>
</svg>
