<svg width="24" height="25" viewBox="0 0 24 25" fill="none" xmlns="http://www.w3.org/2000/svg">
<g clip-path="url(#clip0_257_262)">
<path d="M6.40078 12.2503L11.2008 16.2503L17.6008 8.25029M12.0008 23.4503C10.53 23.4503 9.07357 23.1606 7.71473 22.5977C6.35588 22.0349 5.1212 21.2099 4.08119 20.1699C3.04117 19.1299 2.21618 17.8952 1.65333 16.5363C1.09048 15.1775 0.800781 13.7211 0.800781 12.2503C0.800781 10.7795 1.09048 9.32309 1.65333 7.96424C2.21618 6.60539 3.04117 5.37071 4.08119 4.3307C5.1212 3.29068 6.35588 2.46569 7.71473 1.90284C9.07357 1.33999 10.53 1.05029 12.0008 1.05029C14.9712 1.05029 17.82 2.23029 19.9204 4.3307C22.0208 6.4311 23.2008 9.27987 23.2008 12.2503C23.2008 15.2207 22.0208 18.0695 19.9204 20.1699C17.82 22.2703 14.9712 23.4503 12.0008 23.4503Z" stroke="#FFD02B" stroke-width="1.5"/>
</g>
<defs>
<clipPath id="clip0_257_262">
<rect width="24" height="24" fill="white" transform="translate(0 0.25)"/>
</clipPath>
</defs>
</svg>
