<svg width="24" height="25" viewBox="0 0 24 25" fill="none" xmlns="http://www.w3.org/2000/svg">
<g clip-path="url(#clip0_257_266)">
<path d="M6.40078 12.7503L11.2008 16.7503L17.6008 8.75029M12.0008 23.9503C10.53 23.9503 9.07357 23.6606 7.71473 23.0977C6.35588 22.5349 5.1212 21.7099 4.08119 20.6699C3.04117 19.6299 2.21618 18.3952 1.65333 17.0363C1.09048 15.6775 0.800781 14.2211 0.800781 12.7503C0.800781 11.2795 1.09048 9.82309 1.65333 8.46424C2.21618 7.10539 3.04117 5.87071 4.08119 4.8307C5.1212 3.79068 6.35588 2.96569 7.71473 2.40284C9.07357 1.83999 10.53 1.55029 12.0008 1.55029C14.9712 1.55029 17.82 2.73029 19.9204 4.8307C22.0208 6.9311 23.2008 9.77987 23.2008 12.7503C23.2008 15.7207 22.0208 18.5695 19.9204 20.6699C17.82 22.7703 14.9712 23.9503 12.0008 23.9503Z" stroke="white" stroke-width="1.5"/>
</g>
<defs>
<clipPath id="clip0_257_266">
<rect width="24" height="24" fill="white" transform="translate(0 0.75)"/>
</clipPath>
</defs>
</svg>
