<svg width="35" height="35" viewBox="0 0 35 35" fill="none" xmlns="http://www.w3.org/2000/svg">
<path d="M10.5626 29.6638C12.6708 30.9287 15.2007 31.6315 17.7305 31.6315C25.4606 31.6315 31.7853 25.3068 31.7853 17.5767C31.7853 9.84661 25.4606 3.52197 17.7305 3.52197C10.0004 3.52197 3.67578 9.84661 3.67578 17.5767C3.67578 20.1066 4.37852 22.4959 5.5029 24.6041L4.14005 29.8458C3.9348 30.6353 4.66551 31.3487 5.44983 31.1246L10.5626 29.6638Z" stroke="white" stroke-width="1.58116" stroke-miterlimit="10" stroke-linecap="round" stroke-linejoin="round"/>
<path d="M24.0555 21.5796C24.0555 21.8073 24.0048 22.0413 23.8972 22.269C23.7895 22.4967 23.6501 22.7117 23.4664 22.9141C23.1561 23.2556 22.814 23.5023 22.4276 23.6604C22.0476 23.8185 21.6359 23.9007 21.1925 23.9007C20.5464 23.9007 19.856 23.7489 19.1276 23.439C18.3991 23.1291 17.6707 22.7117 16.9486 22.1868C16.2202 21.6555 15.5298 21.0673 14.871 20.4159C14.2186 19.7581 13.6295 19.0687 13.1038 18.3477C12.5844 17.6267 12.1663 16.9057 11.8623 16.191C11.5583 15.47 11.4062 14.7806 11.4062 14.1228C11.4062 13.6928 11.4823 13.2817 11.6343 12.9022C11.7863 12.5164 12.027 12.1622 12.3627 11.846C12.7681 11.4475 13.2115 11.2515 13.6802 11.2515C13.8576 11.2515 14.0349 11.2894 14.1933 11.3653C14.358 11.4412 14.5036 11.555 14.6177 11.7195L16.0872 13.7876C16.2012 13.9458 16.2835 14.0912 16.3405 14.2304C16.3975 14.3632 16.4292 14.496 16.4292 14.6162C16.4292 14.768 16.3849 14.9198 16.2962 15.0652C16.2139 15.2107 16.0935 15.3625 15.9415 15.5143L15.4601 16.0139C15.3904 16.0835 15.3588 16.1657 15.3588 16.2669C15.3588 16.3175 15.3651 16.3618 15.3778 16.4124C15.3968 16.463 15.4158 16.5009 15.4284 16.5389C15.5424 16.7476 15.7388 17.0195 16.0175 17.3484C16.3025 17.6773 16.6066 18.0125 16.936 18.3477C17.278 18.6829 17.6074 18.9928 17.9431 19.2774C18.2725 19.5557 18.5448 19.7454 18.7602 19.8593C18.7919 19.8719 18.8299 19.8909 18.8742 19.9099C18.9249 19.9289 18.9755 19.9352 19.0325 19.9352C19.1402 19.9352 19.2226 19.8972 19.2922 19.8277L19.7736 19.3533C19.932 19.1952 20.084 19.075 20.2297 18.9991C20.3754 18.9106 20.5211 18.8663 20.6794 18.8663C20.7998 18.8663 20.9265 18.8916 21.0658 18.9485C21.2052 19.0055 21.3508 19.0877 21.5092 19.1952L23.6058 20.6815C23.7705 20.7953 23.8845 20.9282 23.9542 21.0863C24.0175 21.2444 24.0555 21.4025 24.0555 21.5796Z" stroke="white" stroke-width="1.58116" stroke-miterlimit="10"/>
</svg>
