<svg width="35" height="34" viewBox="0 0 35 34" fill="none" xmlns="http://www.w3.org/2000/svg">
<path d="M10.5626 29.2185C12.6708 30.4834 15.2007 31.1861 17.7305 31.1861C25.4606 31.1861 31.7853 24.8615 31.7853 17.1314C31.7853 9.40129 25.4606 3.07666 17.7305 3.07666C10.0004 3.07666 3.67578 9.40129 3.67578 17.1314C3.67578 19.6613 4.37852 22.0506 5.5029 24.1588L4.14005 29.4005C3.9348 30.1899 4.66551 30.9034 5.44983 30.6793L10.5626 29.2185Z" stroke="white" stroke-width="1.58116" stroke-miterlimit="10" stroke-linecap="round" stroke-linejoin="round"/>
<path d="M24.0545 21.1348C24.0545 21.3625 24.0039 21.5965 23.8962 21.8242C23.7885 22.0518 23.6492 22.2669 23.4655 22.4693C23.1551 22.8108 22.8131 23.0575 22.4267 23.2156C22.0466 23.3737 21.6349 23.4559 21.1915 23.4559C20.5454 23.4559 19.855 23.3041 19.1266 22.9942C18.3982 22.6843 17.6697 22.2669 16.9476 21.7419C16.2192 21.2107 15.5288 20.6225 14.87 19.971C14.2176 19.3133 13.6286 18.6239 13.1028 17.9029C12.5834 17.1819 12.1654 16.4609 11.8613 15.7462C11.5573 15.0252 11.4053 14.3358 11.4053 13.678C11.4053 13.2479 11.4813 12.8368 11.6333 12.4574C11.7853 12.0716 12.026 11.7174 12.3617 11.4012C12.7671 11.0027 13.2105 10.8066 13.6792 10.8066C13.8566 10.8066 14.0339 10.8446 14.1923 10.9205C14.357 10.9964 14.5027 11.1102 14.6167 11.2747L16.0862 13.3428C16.2002 13.5009 16.2826 13.6464 16.3396 13.7855C16.3966 13.9184 16.4282 14.0512 16.4282 14.1713C16.4282 14.3231 16.3839 14.4749 16.2952 14.6204C16.2129 14.7659 16.0925 14.9177 15.9405 15.0694L15.4591 15.5691C15.3894 15.6387 15.3578 15.7209 15.3578 15.8221C15.3578 15.8727 15.3641 15.9169 15.3768 15.9675C15.3958 16.0181 15.4148 16.0561 15.4274 16.094C15.5415 16.3027 15.7378 16.5747 16.0165 16.9036C16.3016 17.2325 16.6056 17.5677 16.935 17.9029C17.277 18.2381 17.6064 18.548 17.9421 18.8326C18.2715 19.1109 18.5438 19.3006 18.7592 19.4145C18.7909 19.4271 18.8289 19.4461 18.8732 19.4651C18.9239 19.484 18.9746 19.4904 19.0316 19.4904C19.1393 19.4904 19.2216 19.4524 19.2913 19.3828L19.7727 18.9085C19.931 18.7504 20.083 18.6302 20.2287 18.5543C20.3744 18.4658 20.5201 18.4215 20.6784 18.4215C20.7988 18.4215 20.9255 18.4468 21.0648 18.5037C21.2042 18.5606 21.3499 18.6429 21.5082 18.7504L23.6048 20.2367C23.7695 20.3505 23.8835 20.4833 23.9532 20.6414C24.0165 20.7996 24.0545 20.9577 24.0545 21.1348Z" stroke="white" stroke-width="1.58116" stroke-miterlimit="10"/>
</svg>
